<svg id="Layer_1" data-name="Layer 1" xmlns="http://www.w3.org/2000/svg" viewBox="0 0 100 100"><defs><style>.cls-1{fill:#2d2a26;}.cls-2{fill:#fff;}.cls-3{fill:#ffe800;}.cls-4{fill:#f5333f;}</style></defs><path class="cls-1" d="M60.86,28.94c1.29-.69,2.31-1.3,2.48-1.41,3.93-2,7.4-4.12,12.07-4.79A4.79,4.79,0,0,1,80.47,25a20.21,20.21,0,0,1,3.42,10.23,22.72,22.72,0,0,1-.49,6.19c-.17,1.49.09,1,3.19,7.42a73.57,73.57,0,0,1,3.68,10.21c.64.43,1.56,0,2.3.07a6.44,6.44,0,0,0,1.91-.2c1.7,0,3.68-.48,5,.67.07.22.24.53.12.77-.42.73-1.36.55-2,.76-2.22.28-4.67.13-6.75.9a1.17,1.17,0,0,0-.2.29,53,53,0,0,1,.07,5.47c.79,1,2.18.6,3.3.8a13.93,13.93,0,0,1,4,.87c.13.35.26.7,0,1a3.38,3.38,0,0,1-2,.48s-.06-.13-.15-.17,0,.14-.08.15c-1.64.13-3.28-.16-5,.11-.87.46-.67,1.58-1,2.35a31.47,31.47,0,0,1-1.06,3.38c.15.63.89.69,1.38,1a35.43,35.43,0,0,1,5.62,2.21c.34.19.43.6.6.9a1.2,1.2,0,0,1-.59,1c-.47.32-1,0-1.43,0a48.08,48.08,0,0,0-6.77-1.91,1.4,1.4,0,0,1-.35.13c-6.18,9.43-16.17,12.78-26.62,14.8a99.89,99.89,0,0,1-26.47.5c-5.39-.91-10.64-2.29-15.31-5.61-1.22.22-2.12,1.19-3.21,1.81-1.54,1-2.81,2.55-4.53,3.29-.32-.06-.78,0-.92-.46-.48-1.52,1.33-2.21,2.06-3.2,1.34-1.2,2.85-2.1,4.2-3.25-.06-.13,0-.27-.08-.36C15,86.24,14,84.69,12.79,83.31a1.59,1.59,0,0,0-1.53-.07c-1.32.5-2.83.62-4.15,1.13-.23.06-.43-.15-.62-.21-.31-.34-.13-.82-.13-1.19,1.3-1.19,3.14-1.61,4.72-2.38.34-.68-.36-1.2-.47-1.83-.75-1.4-.93-3.13-1.76-4.51-1.14-.29-2.37.25-3.5.42-1.5.2-2.87.71-4.36,1a.81.81,0,0,1-.92-.45,1.23,1.23,0,0,1,.12-1.07c.73-.91,1.92-.94,2.94-1.33,1.59-.53,3.32-.71,4.93-1.16a.92.92,0,0,0,.36-.5,31.48,31.48,0,0,1,.29-9.91,38.12,38.12,0,0,1,2.22-7.31C9,50,7.68,44.91,8.39,40.28c.68-2.69,1.11-5.59,3.37-7.71,3.6-2,7.8-.59,11.44,0a59.34,59.34,0,0,1,6.56,2,35.37,35.37,0,0,0,4.34-1.1,86,86,0,0,1,10.77-2c3.79-.55,3.79-.55,8.87-1.08A53.14,53.14,0,0,0,60.86,28.94Z"/><path class="cls-2" d="M85.74,68.46a14.8,14.8,0,0,0,1.94-.39,21.5,21.5,0,0,0,.09-5.21c-.44-.69-1.29,0-1.88,0-1.09.16-2.17.82-3.22.43a1.06,1.06,0,0,1-.64-.85c0-1.29,1.42-1.3,2.3-1.72.9-.6,2.54-.27,3-1.51a50.55,50.55,0,0,0-2.21-7.06,57.59,57.59,0,0,0-2.67-5.45c-.35-.59-1.19-2.19-2.28-3.95a23.58,23.58,0,0,0,.81-4.56,23.91,23.91,0,0,0-.11-4.14,13.63,13.63,0,0,0-3-7.5,3.4,3.4,0,0,0-3.24-.66,28,28,0,0,0-8.7,3.9A20.76,20.76,0,0,0,63,32.06c-2.37.61-9,1.29-13.8,1.91l-.22-.06c-1.21.05-4.93.7-5.5.8a96.82,96.82,0,0,0-12.38,2.92,2.8,2.8,0,0,1-1.93.06A41.9,41.9,0,0,0,19,34.62c-1.84,0-4.49-.72-5.82,1.12a12.53,12.53,0,0,0-1.79,6.19c0,.28-.06,1.56,0,2.88a11.58,11.58,0,0,0,1.71,5.1c.57-.25.9-1,1.66-.82a1.4,1.4,0,0,1,.89.64,1.37,1.37,0,0,1,0,1.2A31.54,31.54,0,0,0,11.4,69.26c.19.53-.12,1.53.72,1.67,1.09-.12,2.08.1,3.13,0,.81.2,2,0,2.23,1.06a1.62,1.62,0,0,1-.59.94,17.34,17.34,0,0,1-3.09.32c-.55.1-1.15,0-1.57.44a21.18,21.18,0,0,0,1.25,4c.42.46.45,1.24,1.17,1.49,1.08-.21,2.21-.37,3.3-.53.27,0,.54.31.7.52s.17.81-.22,1c-.75.26-1.43.79-2.19,1-.27.12-.62.25-.49.6a16.31,16.31,0,0,0,2.38,3c.42.41.89,1,1.53.89,1.24-.41,2.3-1.21,3.66-1.39a1.37,1.37,0,0,1,.86,1.1c-.41,1-1.47,1.35-2.23,2a.93.93,0,0,0,0,.37c3,2,6.38,3,9.74,3.85a82.16,82.16,0,0,0,32.06-.67C71.12,89,78.11,86.36,83.17,80.26c.08-.55.65-.8.73-1.32-.69-.43-1.88-.44-2.12-1.38.08-2.26,2.69-.65,3.88-1.56a15.89,15.89,0,0,0,1.53-5.08c-.83-.51-2.08-.15-2.74-1.14-.25-.24,0-.54.06-.78A1.77,1.77,0,0,1,85.74,68.46Z"/><path class="cls-1" d="M71.89,66.55A5.29,5.29,0,0,1,72.24,72a2.74,2.74,0,0,1-2.59,1.19,3.08,3.08,0,0,1-2.31-1.83c-.69-1.76-.65-4,.83-5.28C69.24,65.45,71.07,65.3,71.89,66.55Z"/><path class="cls-1" d="M31.46,71.13a5.64,5.64,0,0,1,.34,5.44,2.75,2.75,0,0,1-2.3,1.3,3.22,3.22,0,0,1-2.12-.93,5.81,5.81,0,0,1-.47-5.33,2.82,2.82,0,0,1,2.88-1.45C30.37,70.42,31.07,70.53,31.46,71.13Z"/><path class="cls-1" d="M55.27,76.8A3.12,3.12,0,0,1,55,79.92c-1.5,1.86-4.47,2-6.56,1.38a3,3,0,0,1-2-2,3.34,3.34,0,0,1,1.15-3.52A6.45,6.45,0,0,1,53.15,75,3.94,3.94,0,0,1,55.27,76.8Z"/><path class="cls-3" d="M53.28,77.57a1.43,1.43,0,0,1,0,1.23c-.84,1.15-2.54,1.24-3.81,1a1.87,1.87,0,0,1-1.15-.85,1.74,1.74,0,0,1,.16-1.16,3.1,3.1,0,0,1,2.92-1.14A2.42,2.42,0,0,1,53.28,77.57Z"/><path class="cls-1" d="M65.71,33.92a17.64,17.64,0,0,0-7.81-9.54,9.72,9.72,0,0,0-5.95-1s-5.7,1.43-8.78,11.82a.36.36,0,0,0,0,.11c-1.3,6.57-.4,8.12.47,9.86,0,0,4.31,7.85,14.58,2.12a9.93,9.93,0,0,0,8.68,4S70,56.55,75,56.85h.14c5,.2,9.55-4.39,11.57-9.66,0,0,3.32-7-2.54-11.5,0,0-3.14-3.26-12.58.54C71.6,36.23,70,34.3,65.71,33.92Z"/><path class="cls-4" d="M55.64,43.22c-3.22-2-3.26-5.15-2.48-6.86a4.75,4.75,0,0,1,4.51-3,6.81,6.81,0,0,1,3,.73L64,35.81l-2.49,2.85a10,10,0,0,0-1.42,2.92l-1.13,3.74Z"/><path class="cls-4" d="M73.73,50.24a4.37,4.37,0,0,1-2.4-.71l-3.1-2.11L70.88,45a7.35,7.35,0,0,0,.47-1.68l.6-4.13,3.71,1.92A4.9,4.9,0,0,1,78.33,47l-.12.32-.18.3a5.08,5.08,0,0,1-4.3,2.6Z"/><path class="cls-4" d="M74.29,43.74s-.36,2.48-1.29,3.33c0,0,1.29.88,2.53-1A1.91,1.91,0,0,0,74.29,43.74Z"/><path class="cls-4" d="M26.15,33.86C29.42,30.19,30,24.8,32.27,18c1.92-5.72,6.91-10.69,12.92-12,8.14-1.75,20.22,1.84,25,8.37.35.47-1.87,1.55-2.11,1.64-3,1.08-6.3.65-9.46.64a3.88,3.88,0,0,0-1.89.32c-2.29,1.29.13,4.18,1.2,5.31.78.82,1.34,1.77,2.13,2.57s2.69,2.43,3.28,2.88"/><path class="cls-1" d="M63.63,29.16a1.41,1.41,0,0,0,.83-.51,1.39,1.39,0,0,0-.24-2c-.58-.45-2.35-2-3.14-2.76a12.46,12.46,0,0,1-1-1.2c-.34-.44-.69-.9-1.11-1.35-1.51-1.59-1.82-2.6-1.77-2.91,0,0,0-.1.23-.22a2.84,2.84,0,0,1,1.19-.14c.67,0,1.34,0,2,0a20.76,20.76,0,0,0,7.92-.77s2.59-1,3-2.36a1.56,1.56,0,0,0-.23-1.42C65.94,6.24,53.22,3,45.08,4.65l-.18,0a19.53,19.53,0,0,0-14,12.91c-.67,2-1.18,3.82-1.68,5.59-1.15,4.12-2.06,7.38-4.16,9.74a1.38,1.38,0,0,0,.12,2,1.41,1.41,0,0,0,2-.12c2.55-2.85,3.58-6.56,4.78-10.85.49-1.74,1-3.53,1.63-5.46,1.84-5.48,6.61-9.92,11.87-11l.17,0c7.64-1.55,18,1.72,22.7,7a7.38,7.38,0,0,1-.77.4,18.61,18.61,0,0,1-6.84.59c-.7,0-1.4,0-2.1,0a5,5,0,0,0-2.59.5,3,3,0,0,0-1.63,2.24c-.24,1.49.6,3.25,2.49,5.24a13.68,13.68,0,0,1,.93,1.13,14.44,14.44,0,0,0,1.22,1.45c.95,1,2.84,2.57,3.42,3A1.42,1.42,0,0,0,63.63,29.16Z"/><path class="cls-2" d="M78.38,14.32a6.67,6.67,0,1,1-7.8-5.23A6.65,6.65,0,0,1,78.38,14.32Z"/><path class="cls-1" d="M73.34,23.44a8.07,8.07,0,0,1-6-1.23A7.86,7.86,0,0,1,63.9,17.1a8.05,8.05,0,0,1,6.33-9.36l.09,0a8,8,0,1,1,3.11,15.7Zm-6.67-6.87a5.14,5.14,0,0,0,2.2,3.33,5.27,5.27,0,0,0,3.94.8l.06,0a5.21,5.21,0,1,0-2-10.22h-.06A5.25,5.25,0,0,0,66.67,16.57Z"/><path class="cls-1" d="M48.52,43.35a52.1,52.1,0,0,1-5.19.79A45.24,45.24,0,0,1,32.21,44l-.72-.1a22.63,22.63,0,0,1-6.64-1.63,7.78,7.78,0,0,1-3.59-3.16,6.91,6.91,0,0,1-.86-2.63C19.86,32.11,21.82,27,26.5,26a6.08,6.08,0,0,1,.87-.12,22.56,22.56,0,0,1,6,.58c.75.14,1.47.28,2.14.37a30.51,30.51,0,0,0,10.11-.47,50.81,50.81,0,0,0,8.19-2.46,23.09,23.09,0,0,0,2.28-1.1,19.71,19.71,0,0,1,5-2l.17,0c4.59-.85,7,2.71,7.82,3.87a7.77,7.77,0,0,1,1.36,6.51c-.69,2.64-2.84,4.9-6.4,6.7A61.49,61.49,0,0,1,48.52,43.35Z"/><path class="cls-2" d="M26.14,39.59a5.06,5.06,0,0,1-2.3-2,4,4,0,0,1-.49-1.55c-.35-2.84.82-7,4.24-7.23,2.46-.19,5.09.6,7.53.93,6.68.91,13.49-.67,19.78-3.1,2.19-.85,4.61-2.58,6.92-3s3.61.86,4.83,2.64c2.76,4-.2,7-3.92,8.93a56.87,56.87,0,0,1-19.69,6,42.49,42.49,0,0,1-10.39-.16A23.73,23.73,0,0,1,26.14,39.59Z"/><path class="cls-4" d="M59.25,36.7s-2.52-1.31-3.36.85c0,0-.9,1.74,1.34,3.16A13.26,13.26,0,0,1,59.25,36.7Z"/><path class="cls-1" d="M51.16,49.69a8.63,8.63,0,0,1-8.29-6.18c-1.64-5.46,1.79-12.76,2.19-13.58l.06-.12c2.87-5.27,6.34-6.38,8.74-6.38A8.18,8.18,0,0,1,58.64,25c5.7,4.11,6.64,8.38,6.73,8.85l.4,2.16-4.51,2.35-1.42-.82a4.32,4.32,0,0,0-2-.69,1.74,1.74,0,0,0-1.43.95,1.57,1.57,0,0,0-.09,1.31A3.42,3.42,0,0,0,58,40.46l1.73.62.64,5.31-1.71,1A15.3,15.3,0,0,1,51.16,49.69Z"/><path class="cls-4" d="M62.44,34.39s-.64-3.47-5.58-7c0,0-4.9-3.91-9.13,3.84,0,0-3.37,6.92-2,11.48,0,0,2.08,7.42,11.41,2.08L57,43.26s-5.25-1.87-3.25-6.69c0,0,2.15-4.77,7.63-1.6Z"/><path class="cls-1" d="M75.25,57.07a7.57,7.57,0,0,1-2.36-.38,10.76,10.76,0,0,1-5.75-4.29l-1.49-2.2,5-4.33,1.56.47h0a4.73,4.73,0,0,0,1.09.13c1.05,0,1.3-.36,1.43-.67.26-1.23-1.16-1.75-1.62-1.93l-1.41-.52-1.67-5.79L72,36.36a14.38,14.38,0,0,1,7-2.06,9.25,9.25,0,0,1,5.69,1.86,8,8,0,0,1,3,5c.57,3-.4,6.39-2.88,10C84.33,51.7,80.51,57.07,75.25,57.07Z"/><path class="cls-4" d="M73.55,38.88s5.35-3.39,9.34-.33c0,0,4.68,3.2-.59,10.86,0,0-4.08,6-8.55,4.44a7.73,7.73,0,0,1-4.15-3.12l1.81-1.55s4.75,1.42,6.2-2.45c0,0,1.22-3.92-3.42-5.64Z"/><path class="cls-1" d="M65.74,51.4a8.69,8.69,0,0,1-1-17.32,9.24,9.24,0,0,1,1-.06,8.69,8.69,0,0,1,1,17.32A9.55,9.55,0,0,1,65.74,51.4Z"/><path class="cls-4" d="M71.42,42a5.72,5.72,0,1,1-6.37-5A5.72,5.72,0,0,1,71.42,42Z"/></svg>