<svg id="Layer_1" data-name="Layer 1" xmlns="http://www.w3.org/2000/svg" viewBox="0 0 100 100"><defs><style>.cls-1{fill:#00ac69;}.cls-2{fill:#2d2a26;}.cls-3{fill:#f5333f;}</style></defs><g id="Layer_2" data-name="Layer 2"><path class="cls-1" d="M44.8,56.72c-7-7.39.39-17.13.7-17.54a2.1,2.1,0,0,0,.22-2.28,2.34,2.34,0,0,0-2-1.13c-11.81-.89-12-12.68-12-13.24A2.13,2.13,0,0,0,30.75,21,2.25,2.25,0,0,0,29,20.71C19.6,23,12.81,14.52,12.72,14.43a2.12,2.12,0,0,0-3.57,1.78C10.6,27.78,2.9,33.42,2.58,33.65a2.11,2.11,0,0,0,.29,3.63c3.93,1.91,6,4.9,6.18,8.9A15,15,0,0,1,8,52.1,2.11,2.11,0,0,0,9.82,55c12.06,1,13.48,8.44,13.53,8.74A2.13,2.13,0,0,0,25,65.52h0a2.1,2.1,0,0,0,2.19-.83c4.25-5.94,15.7-4.44,15.82-4.43a2.1,2.1,0,0,0,2.17-1.13A2.13,2.13,0,0,0,44.8,56.72Z"/><path class="cls-2" d="M25.44,67.25a3.53,3.53,0,0,1-.85-.1l-.13,0A3.72,3.72,0,0,1,21.7,64c-.05-.22-1.3-6.47-12-7.31a3.79,3.79,0,0,1-3.18-5.28,13.75,13.75,0,0,0,.87-5.18c-.15-3.38-1.87-5.82-5.25-7.46a3.79,3.79,0,0,1-.52-6.51c.29-.2,7.2-5.28,5.88-15.87a3.79,3.79,0,0,1,2.07-3.86,3.86,3.86,0,0,1,4.33.68l.14.15c.86,1,5.45,6,11.72,6a12.27,12.27,0,0,0,2.81-.34,3.92,3.92,0,0,1,3.12.5,3.78,3.78,0,0,1,1.67,2.8s0,.16,0,.17C33.55,25.8,35,33.43,43.85,34.1a3.94,3.94,0,0,1,3.35,2,3.78,3.78,0,0,1-.38,4.09c-.27.36-6.86,9-.81,15.34A3.79,3.79,0,0,1,43.27,62h0a4.53,4.53,0,0,1-.52,0,22.87,22.87,0,0,0-3-.17c-3.14,0-8.76.51-11.19,3.91A3.8,3.8,0,0,1,25.44,67.25ZM11.25,15.51a.41.41,0,0,0-.19.05.43.43,0,0,0-.24.44c1.56,12.55-6.91,18.76-7.27,19a.43.43,0,0,0,.05.75c4.46,2.17,6.93,5.74,7.13,10.33a17.1,17.1,0,0,1-1.15,6.68.43.43,0,0,0,.36.58c13.37,1,15,9.76,15.07,10.13a.44.44,0,0,0,.33.39l.1,0a.44.44,0,0,0,.35-.18c3.14-4.39,9.3-5.31,13.92-5.31a30,30,0,0,1,3.5.19h0a.45.45,0,0,0,.43-.23.43.43,0,0,0-.07-.5c-8-8.4.24-19.26.6-19.72a.43.43,0,0,0,0-.47c-.06-.12-.31-.21-.63-.23-9.43-.72-13.21-8.06-13.59-14.7a.48.48,0,0,0-.19-.38.6.6,0,0,0-.47,0,15.21,15.21,0,0,1-3.6.43c-7.74,0-13.25-6-14.27-7.21A.56.56,0,0,0,11.25,15.51Z"/><path class="cls-1" d="M38.29,65S23.86,49.74,17.1,31.34"/><path class="cls-2" d="M38.29,66.69a1.68,1.68,0,0,1-1.22-.53c-.6-.63-14.74-15.73-21.54-34.24a1.68,1.68,0,0,1,3.15-1.16c6.56,17.87,20.69,33,20.83,33.1a1.68,1.68,0,0,1-1.22,2.83Z"/><path class="cls-1" d="M42.35,59.08c10.2.12,12.26-12,12.34-12.47a2.11,2.11,0,0,1,1.52-1.71,2.34,2.34,0,0,1,2.19.68c8.7,8,17.45.14,17.9-.21A2.08,2.08,0,0,1,78.07,45a2.2,2.2,0,0,1,1.42,1.13c4.71,8.39,15.54,7.59,15.66,7.6a2.11,2.11,0,0,1,1.13,3.82C86.83,64.37,88,73.85,88,74.24a2.1,2.1,0,0,1-2.85,2.26c-4.07-1.57-7.68-1-10.72,1.54a15.27,15.27,0,0,0-3.65,4.78,2.11,2.11,0,0,1-3.36.7c-8.92-8.18-15.37-4.11-15.62-3.94a2.11,2.11,0,0,1-2.36,0h0a2.11,2.11,0,0,1-.89-2.17C50,70.26,41.08,62.9,41,62.83a2.11,2.11,0,0,1,1.36-3.75Z"/><path class="cls-2" d="M68.85,85.76a3.76,3.76,0,0,1-2.57-1c-3.31-3-6.73-4.65-9.86-4.65a7.36,7.36,0,0,0-3.7.88,3.87,3.87,0,0,1-4.2,0l-.06,0a3.79,3.79,0,0,1-1.57-3.87c1-5.09-4.67-11.08-7-13a3.79,3.79,0,0,1,2.39-6.73h.18C51.15,57.41,53,46.79,53,46.34a3.78,3.78,0,0,1,2.72-3.06,4,4,0,0,1,3.78,1.07,10.64,10.64,0,0,0,7.3,3.15c3.85,0,7.09-2.34,8.3-3.34l.14-.12A3.78,3.78,0,0,1,81,45.3c3.53,6.27,11.15,6.76,13.41,6.76.34,0,.57,0,.66,0h.13a3.79,3.79,0,0,1,2.12,6.85c-8.65,6.25-7.65,14.78-7.6,15.14a3.79,3.79,0,0,1-1.4,3.47,3.84,3.84,0,0,1-3.72.57c-3.51-1.36-6.45-1-9,1.25a13.74,13.74,0,0,0-3.21,4.18,3.74,3.74,0,0,1-2.68,2.17A3.39,3.39,0,0,1,68.85,85.76Zm-12.43-9c4,0,8.13,1.87,12.14,5.55a.41.41,0,0,0,.38.1.44.44,0,0,0,.31-.25,16.83,16.83,0,0,1,4.09-5.37c3.49-3,7.77-3.62,12.42-1.83a.42.42,0,0,0,.42-.07.42.42,0,0,0,.16-.39c-.06-.46-1.28-10.9,9-18.3a.44.44,0,0,0,.16-.48.42.42,0,0,0-.35-.3h-.75c-2.72,0-11.92-.61-16.33-8.47a.68.68,0,0,0-.34-.32.48.48,0,0,0-.36.08,17,17,0,0,1-10.49,4.15,13.93,13.93,0,0,1-9.58-4,1,1,0,0,0-.55-.31.43.43,0,0,0-.36.36c-.09.57-2.38,13.89-13.85,13.89h-.17a.42.42,0,0,0-.41.28.43.43,0,0,0,.13.49c.09.07,9.79,8,8.13,16.22a.45.45,0,0,0,.18.45h0a.36.36,0,0,0,.47,0A10.48,10.48,0,0,1,56.42,76.74Z"/><path class="cls-1" d="M40,68.66s21-.57,38.79-8.78"/><path class="cls-2" d="M39.94,70.33a1.68,1.68,0,0,1,0-3.35c.21,0,20.88-.66,38.14-8.62a1.68,1.68,0,1,1,1.41,3C61.54,69.66,40.86,70.31,40,70.33Z"/><circle class="cls-3" cx="27.77" cy="68.82" r="10.74"/><path class="cls-2" d="M27.76,81.24a12.51,12.51,0,0,1-6-1.56,12.43,12.43,0,1,1,6,1.56Zm0-21.48a9.07,9.07,0,0,0-4.42,17,9.19,9.19,0,0,0,4.4,1.14,9.09,9.09,0,0,0,7.93-4.66,9.06,9.06,0,0,0-7.91-13.47Z"/><circle class="cls-3" cx="44.49" cy="76.58" r="10.74"/><path class="cls-2" d="M44.48,89a12.42,12.42,0,1,1,10.87-6.39A12.37,12.37,0,0,1,44.48,89Zm0-21.48a9.06,9.06,0,1,0,4.4,1.14A9.07,9.07,0,0,0,44.5,67.52Z"/><circle class="cls-3" cx="43.71" cy="56.89" r="10.74"/><path class="cls-2" d="M43.7,69.31a12.43,12.43,0,1,1,10.86-6.39A12.41,12.41,0,0,1,43.7,69.31Zm0-21.49a9.07,9.07,0,1,0,7.91,13.47,9.08,9.08,0,0,0-7.91-13.47Z"/></g></svg>